# xmcd
#
# Track frame offsets: 
#        150
#        13380
#        27615
#        40662
#        51657
#        63840
#        76510
#        89292
#        99840
#        111092
#        122585
#        136362
#        146970
#        159237
#        172555
#        185195
#        197600
#        207722
#        217230
#        228855
#        239722
#        251432
#        263377
#        276470
#        289712
#        299812
#        311297
#
# Disc length: 4283 seconds
#
# Revision: 2
# Processed by: cddbd v1.5.2PL0 Copyright (c) Steve Scherf et al.
# Submitted via: ExactAudioCopy v1.1
#
DISCID=9410b91b
DTITLE=Slim Whitman - Una Paloma Blanca: The Best Of Slim Whitman (Leg
DTITLE=endary Masters)
DYEAR=1990
DGENRE=Pop
TTITLE0=Love Song Of The Waterfall (mono)
TTITLE1=Indian Love Call (mono)
TTITLE2=China Doll (mono)
TTITLE3=Keep It A Secret (mono)
TTITLE4=My Heart Is Broken In Three (mono)
TTITLE5=North Wind (mono)
TTITLE6=Secret Love (mono)
TTITLE7=Rose Marie (mono)
TTITLE8=Singing Hills (mono)
TTITLE9=Cattle Call (mono)
TTITLE10=Tumbling Tumbleweeds (mono)
TTITLE11=Serenade (mono)
TTITLE12=I'm A Fool (mono)
TTITLE13=I'll Take You Home Again, Kathleen (mono)
TTITLE14=The Bells That Broke My Heart (1990 stereo remix)
TTITLE15=More Than Yesterday (1990 stereo remix)
TTITLE16=The Twelfth Of Never (1990 stereo remix)
TTITLE17=I Remember You (1990 stereo remix)
TTITLE18=Rainbows Are Back In Style (stereo)
TTITLE19=Happy Street (stereo)
TTITLE20=Tomorrow Never Comes
TTITLE21=Shutters And Boards
TTITLE22=Guess Who
TTITLE23=Something Beautiful (To Remember)
TTITLE24=It's A Sin To Tell A Lie
TTITLE25=Happy Anniversary
TTITLE26=Una Paloma Blanca
EXTD=1990 EMI-USA\nReleased October 1990\n\nAMG EXPERT REVIEW: Over it
EXTD=s 27 tracks, The Best of Slim Whitman runs through all of his Top
EXTD=10 hits -- from "Love Song of the Waterfall" to "Something Beaut
EXTD=iful (To Remember)" -- adding significant hit singles like "Cattl
EXTD=e Call," "The Twelfth of Never," and "Rainbows Are Back In Style.
EXTD=" Out of all the Whitman collections, nothing surpasses this one 
EXTD=for selection and sound -- it's the definitive compilation. -- Th
EXTD=om Owens\n\nHalf.com Album Notes\nProducers: Herb Schucher, Scott
EXTD=Turner, Biff Collie, Kelso Herston, Ken Barnes, Alan Warner, Sli
EXTD=m Whitman.\n\nRecorded at RCA Studios and CBS Studios, Nashville,
EXTD=Tennessee - KWKH Radio, Shreveport, Louisiana - and London, Englan
EXTD=d. Includes liner notes by Loren Knapp.\n\nDigitally remastered b
EXTD=y Bob Norberg (January 1990, Capitol Recording Studios).\n\nTrack
EXTD=s 1-14 are mono AAD, tracks 15-18 are stereo ADD and tracks 19-27
EXTD=are stereo AAD.\n\nThis is part of the EMI Legends of Rock and Rol
EXTD=l series.\n\nThis compilation spans the years 1952-1977 and conta
EXTD=ins previously released material. Detailed liner notes are includ
EXTD=ed.
EXTT0=
EXTT1=
EXTT2=
EXTT3=
EXTT4=
EXTT5=
EXTT6=
EXTT7=
EXTT8=
EXTT9=
EXTT10=
EXTT11=
EXTT12=
EXTT13=
EXTT14=
EXTT15=
EXTT16=
EXTT17=
EXTT18=
EXTT19=
EXTT20=
EXTT21=
EXTT22=
EXTT23=
EXTT24=
EXTT25=
EXTT26=
PLAYORDER=
